<mxfile host="app.diagrams.net" modified="2020-07-17T18:43:51.569Z" agent="5.0 (Windows NT 10.0; Win64; x64) AppleWebKit/537.36 (KHTML, like Gecko) Chrome/84.0.4147.89 Safari/537.36" etag="u598xPfyDFnCcrMkmLWU" version="13.4.5" type="github">
  <diagram id="tBEbQWenUrNbx1Z8LTrX" name="Page-1">
    <mxGraphModel dx="1422" dy="794" grid="1" gridSize="10" guides="1" tooltips="1" connect="1" arrows="1" fold="1" page="1" pageScale="1" pageWidth="850" pageHeight="1100" math="0" shadow="0">
      <root>
        <mxCell id="0" />
        <mxCell id="1" parent="0" />
        <mxCell id="bEAabfWQqf5mojN98RMT-20" style="edgeStyle=orthogonalEdgeStyle;rounded=0;orthogonalLoop=1;jettySize=auto;html=1;exitX=0.5;exitY=1;exitDx=0;exitDy=0;entryX=0.5;entryY=0;entryDx=0;entryDy=0;" edge="1" parent="1" source="bEAabfWQqf5mojN98RMT-1" target="bEAabfWQqf5mojN98RMT-2">
          <mxGeometry relative="1" as="geometry" />
        </mxCell>
        <mxCell id="bEAabfWQqf5mojN98RMT-1" value="COO Focht Adds or requests to add a new SLA" style="rounded=0;whiteSpace=wrap;html=1;fillColor=#dae8fc;strokeColor=#6c8ebf;" vertex="1" parent="1">
          <mxGeometry x="190" y="50" width="120" height="60" as="geometry" />
        </mxCell>
        <mxCell id="bEAabfWQqf5mojN98RMT-21" style="edgeStyle=orthogonalEdgeStyle;rounded=0;orthogonalLoop=1;jettySize=auto;html=1;exitX=0.5;exitY=1;exitDx=0;exitDy=0;entryX=0.5;entryY=0;entryDx=0;entryDy=0;" edge="1" parent="1" source="bEAabfWQqf5mojN98RMT-2" target="bEAabfWQqf5mojN98RMT-16">
          <mxGeometry relative="1" as="geometry" />
        </mxCell>
        <mxCell id="bEAabfWQqf5mojN98RMT-2" value="&lt;b&gt;Insert:&lt;/b&gt;&lt;br&gt;New record to tbl_ref_sla with sla_id, sla_desc, sla_min_days and sla_max_days" style="rounded=0;whiteSpace=wrap;html=1;fillColor=#d5e8d4;strokeColor=#82b366;" vertex="1" parent="1">
          <mxGeometry x="175" y="160" width="150" height="70" as="geometry" />
        </mxCell>
        <mxCell id="bEAabfWQqf5mojN98RMT-22" style="edgeStyle=orthogonalEdgeStyle;rounded=0;orthogonalLoop=1;jettySize=auto;html=1;exitX=0.5;exitY=1;exitDx=0;exitDy=0;entryX=1;entryY=0.5;entryDx=0;entryDy=0;" edge="1" parent="1" source="bEAabfWQqf5mojN98RMT-3" target="bEAabfWQqf5mojN98RMT-4">
          <mxGeometry relative="1" as="geometry" />
        </mxCell>
        <mxCell id="bEAabfWQqf5mojN98RMT-23" style="edgeStyle=orthogonalEdgeStyle;rounded=0;orthogonalLoop=1;jettySize=auto;html=1;exitX=0.5;exitY=1;exitDx=0;exitDy=0;entryX=0;entryY=0.5;entryDx=0;entryDy=0;" edge="1" parent="1" source="bEAabfWQqf5mojN98RMT-3" target="bEAabfWQqf5mojN98RMT-5">
          <mxGeometry relative="1" as="geometry" />
        </mxCell>
        <mxCell id="bEAabfWQqf5mojN98RMT-3" value="Do the number of rows in tbl_ref_sla squared equal the number of rows in tbl_ref_sla_code?" style="rounded=0;whiteSpace=wrap;html=1;fillColor=#dae8fc;strokeColor=#6c8ebf;" vertex="1" parent="1">
          <mxGeometry x="175" y="333" width="150" height="70" as="geometry" />
        </mxCell>
        <mxCell id="bEAabfWQqf5mojN98RMT-15" style="edgeStyle=orthogonalEdgeStyle;rounded=0;orthogonalLoop=1;jettySize=auto;html=1;exitX=0.5;exitY=1;exitDx=0;exitDy=0;entryX=0.5;entryY=0;entryDx=0;entryDy=0;" edge="1" parent="1" source="bEAabfWQqf5mojN98RMT-4" target="bEAabfWQqf5mojN98RMT-14">
          <mxGeometry relative="1" as="geometry" />
        </mxCell>
        <mxCell id="bEAabfWQqf5mojN98RMT-4" value="Yes" style="rounded=0;whiteSpace=wrap;html=1;fillColor=#dae8fc;strokeColor=#6c8ebf;" vertex="1" parent="1">
          <mxGeometry x="175" y="423" width="40" height="30" as="geometry" />
        </mxCell>
        <mxCell id="bEAabfWQqf5mojN98RMT-12" style="edgeStyle=orthogonalEdgeStyle;rounded=0;orthogonalLoop=1;jettySize=auto;html=1;exitX=0.5;exitY=1;exitDx=0;exitDy=0;entryX=0.5;entryY=0;entryDx=0;entryDy=0;" edge="1" parent="1" source="bEAabfWQqf5mojN98RMT-5" target="bEAabfWQqf5mojN98RMT-6">
          <mxGeometry relative="1" as="geometry" />
        </mxCell>
        <mxCell id="bEAabfWQqf5mojN98RMT-5" value="No" style="rounded=0;whiteSpace=wrap;html=1;fillColor=#dae8fc;strokeColor=#6c8ebf;" vertex="1" parent="1">
          <mxGeometry x="285" y="423" width="40" height="30" as="geometry" />
        </mxCell>
        <mxCell id="bEAabfWQqf5mojN98RMT-13" style="edgeStyle=orthogonalEdgeStyle;rounded=0;orthogonalLoop=1;jettySize=auto;html=1;exitX=1;exitY=0.5;exitDx=0;exitDy=0;entryX=0;entryY=0.5;entryDx=0;entryDy=0;" edge="1" parent="1" source="bEAabfWQqf5mojN98RMT-6" target="bEAabfWQqf5mojN98RMT-7">
          <mxGeometry relative="1" as="geometry" />
        </mxCell>
        <mxCell id="bEAabfWQqf5mojN98RMT-6" value="What&#39;s the difference between the number of rows in tbl_ref_sla_code and the number of rows that there should be?" style="rounded=0;whiteSpace=wrap;html=1;fillColor=#dae8fc;strokeColor=#6c8ebf;" vertex="1" parent="1">
          <mxGeometry x="275" y="503" width="150" height="70" as="geometry" />
        </mxCell>
        <mxCell id="bEAabfWQqf5mojN98RMT-7" value="&lt;b&gt;Insert:&lt;/b&gt;&lt;br&gt;New records into tbl_ref_sla_code to equal the required number of rows." style="rounded=0;whiteSpace=wrap;html=1;fillColor=#d5e8d4;strokeColor=#82b366;" vertex="1" parent="1">
          <mxGeometry x="470" y="503" width="150" height="70" as="geometry" />
        </mxCell>
        <mxCell id="bEAabfWQqf5mojN98RMT-14" value="No updates or inserts required." style="rounded=0;whiteSpace=wrap;html=1;fillColor=#d5e8d4;strokeColor=#82b366;" vertex="1" parent="1">
          <mxGeometry x="50" y="503" width="150" height="70" as="geometry" />
        </mxCell>
        <mxCell id="bEAabfWQqf5mojN98RMT-24" style="edgeStyle=orthogonalEdgeStyle;rounded=0;orthogonalLoop=1;jettySize=auto;html=1;exitX=0.5;exitY=1;exitDx=0;exitDy=0;entryX=0.5;entryY=0;entryDx=0;entryDy=0;" edge="1" parent="1" source="bEAabfWQqf5mojN98RMT-16" target="bEAabfWQqf5mojN98RMT-3">
          <mxGeometry relative="1" as="geometry" />
        </mxCell>
        <mxCell id="bEAabfWQqf5mojN98RMT-16" value="" style="ellipse;whiteSpace=wrap;html=1;aspect=fixed;fillColor=#ffe6cc;strokeColor=#d79b00;" vertex="1" parent="1">
          <mxGeometry x="235" y="270" width="30" height="30" as="geometry" />
        </mxCell>
        <mxCell id="bEAabfWQqf5mojN98RMT-17" value="trg_i_tbl_ref_sla" style="rounded=0;whiteSpace=wrap;html=1;fillColor=#ffe6cc;strokeColor=#d79b00;" vertex="1" parent="1">
          <mxGeometry x="275" y="272.5" width="170" height="25" as="geometry" />
        </mxCell>
      </root>
    </mxGraphModel>
  </diagram>
</mxfile>
